PathFileType	4	(X/Y/Z) abd_2kg_3.trc																										
DataRate	CameraRate	NumFrames	NumMarkers	Units	OrigDataRate	OrigDataStartFrame	OrigNumFrames																					
100	100	29	9	mm	100	235	938																					
Frame#	Time	gu			centelbow			EpL			centpxt8			centijc7			ij			ts			aa			ai		
		X1	Y1	Z1	X2	Y2	Z2	X3	Y3	Z3	X4	Y4	Z4	X5	Y5	Z5	X6	Y6	Z6	X7	Y7	Z7	X8	Y8	Z8	X9	Y9	Z9  
234	2.34	-93.409	53.137	129.786	-100.495	79.558	375.217	-116.054	106.808	367.816	-46.816	-153.158	-8.669	-46.816	31.938	-8.669	0	0	0	-126.095	0.34	28.063	-129.533	65.751	127.734	-129.088	-91.619	94.546
235	2.35	-93.615	54.005	128.739	-100.285	83.61	373.817	-115.914	110.729	366.092	-46.816	-153.158	-8.669	-46.816	31.938	-8.669	0	0	0	-126.274	0.373	28.086	-129.75	66.269	127.436	-129.311	-91.261	95.015
236	2.36	-93.607	55.111	127.844	-99.928	87.939	372.52	-115.626	114.922	364.464	-46.816	-153.158	-8.669	-46.816	31.938	-8.669	0	0	0	-126.637	0.409	28.04	-130.132	66.772	127.078	-129.662	-90.909	95.4
237	2.37	-93.542	55.858	127.364	-99.688	91.76	371.613	-115.401	118.635	363.23	-46.816	-153.158	-8.669	-46.816	31.938	-8.669	0	0	0	-127.064	0.568	27.745	-130.557	67.376	126.484	-130.011	-90.447	95.519
238	2.38	-93.5	55.825	127.32	-99.631	94.608	371.128	-115.286	121.415	362.425	-46.816	-153.158	-8.669	-46.816	31.938	-8.669	0	0	0	-127.318	0.793	27.389	-130.798	68.037	125.832	-130.177	-89.921	95.568
239	2.39	-93.336	55.455	127.341	-99.478	97.059	370.684	-115.048	123.811	361.664	-46.816	-153.158	-8.669	-46.816	31.938	-8.669	0	0	0	-127.272	0.87	27.371	-130.729	68.558	125.51	-130.122	-89.536	95.96
240	2.4	-93.055	55.357	127.265	-99.208	99.836	370.098	-114.708	126.518	360.757	-46.816	-153.158	-8.669	-46.816	31.938	-8.669	0	0	0	-127.097	0.617	27.8	-130.511	68.78	125.611	-130.063	-89.454	96.822
241	2.41	-92.923	55.572	127.245	-99.128	102.985	369.522	-114.586	129.575	359.852	-46.816	-153.158	-8.669	-46.816	31.938	-8.669	0	0	0	-127.064	0.044	28.421	-130.407	68.723	125.872	-130.224	-89.66	97.911
242	2.42	-93.053	55.947	127.222	-99.273	106.263	368.911	-114.704	132.748	358.92	-46.816	-153.158	-8.669	-46.816	31.938	-8.669	0	0	0	-127.26	-0.588	28.919	-130.508	68.632	125.991	-130.563	-89.903	98.901
243	2.43	-93.207	56.474	126.906	-99.276	109.548	368.009	-114.688	135.932	357.723	-46.816	-153.158	-8.669	-46.816	31.938	-8.669	0	0	0	-127.573	-0.9	29.144	-130.701	68.857	125.834	-130.881	-89.825	99.621
244	2.44	-93.089	56.985	126.26	-98.842	112.664	366.783	-114.229	138.956	356.228	-46.816	-153.158	-8.669	-46.816	31.938	-8.669	0	0	0	-127.866	-0.705	29.14	-130.85	69.578	125.452	-131.088	-89.244	100.105
245	2.45	-92.709	57.131	125.702	-98.127	115.385	365.621	-113.465	141.597	354.8	-46.816	-153.158	-8.669	-46.816	31.938	-8.669	0	0	0	-128.136	-0.234	29.137	-130.976	70.567	125.074	-131.332	-88.389	100.58
246	2.46	-92.43	56.932	125.648	-97.607	117.842	364.912	-112.886	143.971	353.808	-46.816	-153.158	-8.669	-46.816	31.938	-8.669	0	0	0	-128.428	0.008	29.406	-131.149	71.326	124.963	-131.77	-87.758	101.319
247	2.47	-92.586	56.828	125.864	-97.519	120.484	364.418	-112.771	146.503	353.026	-46.816	-153.158	-8.669	-46.816	31.938	-8.669	0	0	0	-128.667	-0.236	29.887	-131.275	71.605	125.055	-132.265	-87.603	102.273
248	2.48	-93.046	57.061	125.726	-97.528	123.504	363.527	-112.812	149.384	351.862	-46.816	-153.158	-8.669	-46.816	31.938	-8.669	0	0	0	-128.812	-0.721	30.184	-131.274	71.645	124.957	-132.6	-87.683	103.047
249	2.49	-93.349	57.373	125.082	-97.151	126.585	362.104	-112.511	152.305	350.187	-46.816	-153.158	-8.669	-46.816	31.938	-8.669	0	0	0	-128.964	-1.078	30.088	-131.255	71.804	124.469	-132.775	-87.639	103.424
250	2.5	-93.271	57.498	124.344	-96.357	129.435	360.564	-111.803	154.989	348.406	-46.816	-153.158	-8.669	-46.816	31.938	-8.669	0	0	0	-129.172	-1.208	29.82	-131.315	72.187	123.806	-132.887	-87.368	103.632
251	2.51	-93.061	57.659	123.794	-95.565	132.313	359.176	-111.094	157.698	346.77	-46.816	-153.158	-8.669	-46.816	31.938	-8.669	0	0	0	-129.352	-1.248	29.716	-131.403	72.7	123.269	-132.958	-86.971	104.041
252	2.52	-93.045	58.233	123.291	-95.089	135.628	357.791	-110.698	160.836	345.13	-46.816	-153.158	-8.669	-46.816	31.938	-8.669	0	0	0	-129.396	-1.419	29.89	-131.406	73.155	122.947	-132.956	-86.642	104.789
253	2.53	-93.203	59.2	122.677	-94.797	139.355	356.252	-110.482	164.385	343.333	-46.816	-153.158	-8.669	-46.816	31.938	-8.669	0	0	0	-129.343	-1.887	30.216	-131.339	73.364	122.726	-132.944	-86.561	105.734
254	2.54	-93.354	60.159	122.102	-94.479	143.077	354.712	-110.215	167.94	341.534	-46.816	-153.158	-8.669	-46.816	31.938	-8.669	0	0	0	-129.412	-2.579	30.482	-131.404	73.368	122.422	-133.115	-86.679	106.634
255	2.55	-93.499	60.623	121.83	-94.214	146.299	353.441	-109.955	171.013	339.993	-46.816	-153.158	-8.669	-46.816	31.938	-8.669	0	0	0	-129.746	-3.215	30.616	-131.755	73.432	121.973	-133.584	-86.729	107.403
256	2.56	-93.68	60.362	121.89	-94.115	148.814	352.455	-109.808	173.399	338.717	-46.816	-153.158	-8.669	-46.816	31.938	-8.669	0	0	0	-130.197	-3.65	30.823	-132.292	73.696	121.586	-134.243	-86.57	108.241
257	2.57	-93.808	59.765	121.968	-94.063	151.048	351.427	-109.679	175.508	337.382	-46.816	-153.158	-8.669	-46.816	31.938	-8.669	0	0	0	-130.507	-3.979	31.298	-132.783	74.05	121.47	-134.881	-86.31	109.325
258	2.58	-93.874	59.58	121.694	-93.946	153.694	350.008	-109.506	178.013	335.659	-46.816	-153.158	-8.669	-46.816	31.938	-8.669	0	0	0	-130.669	-4.295	31.879	-133.174	74.382	121.48	-135.419	-86.058	110.478
259	2.59	-94.028	60.053	121.036	-93.821	156.891	348.207	-109.377	181.048	333.582	-46.816	-153.158	-8.669	-46.816	31.938	-8.669	0	0	0	-130.82	-4.568	32.261	-133.536	74.721	121.315	-135.843	-85.789	111.403
260	2.6	-94.32	60.732	120.344	-93.743	160.126	346.408	-109.343	184.107	331.542	-46.816	-153.158	-8.669	-46.816	31.938	-8.669	0	0	0	-130.909	-4.74	32.304	-133.804	75.138	120.825	-136.017	-85.436	111.976
261	2.61	-94.676	61.073	119.987	-93.708	162.855	344.984	-109.365	186.661	329.899	-46.816	-153.158	-8.669	-46.816	31.938	-8.669	0	0	0	-130.865	-4.84	32.101	-133.927	75.609	120.097	-135.912	-85.022	112.295
262	2.62	-95.091	60.906	119.931	-93.71	164.998	343.867	-109.424	188.633	328.574	-46.816	-153.158	-8.669	-46.816	31.938	-8.669	0	0	0	-130.804	-4.992	32.001	-134.038	76.021	119.472	-135.771	-84.66	112.71
